<svg data-bbox="74.115 74.027 253.797 251.739" viewBox="74.115 74.027 253.797 251.739" xmlns="http://www.w3.org/2000/svg" data-type="shape" role="presentation" aria-hidden="true" aria-label="">
    <g fill="#2D2E2F">
        <path fill-rule="evenodd" d="M186.88 74.242c-1.674.164-38.477 10.246-39.577 10.843-1.023.553-2.142 1.67-2.691 2.684-.73 1.348-10.372 38.386-10.372 39.842 0 1.203.37 2.555.962 3.513.832 1.346 28.524 28.48 29.6 29.003 2.783 1.355 2.387 1.429 24.718-4.641 19.817-5.386 20.132-5.485 21.453-6.773 1.395-1.36 1.355-1.231 6.654-21.411l4.962-18.902-.063-1.386c-.128-2.804.771-1.768-15.32-17.658-16.902-16.691-15.426-15.594-20.326-15.114m-60.32 60.799c-1.49.14-37.705 10.028-39.113 10.679-1.121.518-2.394 1.729-2.991 2.847-.91 1.7-10.419 38.652-10.341 40.183.138 2.723-.705 1.755 15.31 17.58 16.825 16.624 15.417 15.54 19.695 15.157 2.128-.191 38.551-10.032 40.176-10.855 2.69-1.363 2.506-.857 8.143-22.361 5.885-22.45 5.533-20.567 4.311-23.096-.52-1.078-27.77-28.307-29.291-29.27-1.502-.95-2.865-1.149-5.899-.864m165.36 43.348c-1.444.153-37.943 10.128-39.12 10.691-1.081.517-2.391 1.798-2.932 2.865-.913 1.8-10.393 38.685-10.317 40.137.15 2.856-1.704.822 22.321 24.486 9.038 8.902 8.833 8.774 13.131 8.247 1.989-.244 38.655-10.261 39.788-10.87 2.68-1.441 2.46-.83 8.144-22.585 5.75-22.01 5.471-20.517 4.276-22.858-.818-1.605-28.393-28.839-29.998-29.628-1.217-.599-2.829-.746-5.293-.485m-142.64 39.047c-1.652.18-38.545 10.293-39.562 10.844-.959.52-2.203 1.826-2.73 2.865-.611 1.205-10.349 38.462-10.346 39.584.002 1.108.318 2.294.891 3.346.478.879 27.823 28.054 29.086 28.905 1.4.944 2.837 1.197 5.381.948 1.528-.15 38.712-10.233 39.82-10.798 2.765-1.41 2.554-.832 8.256-22.615 5.807-22.181 5.48-20.412 4.24-22.943-.796-1.624-28.28-28.739-29.984-29.582-1.326-.655-2.724-.808-5.052-.554m84.32 21.495c-.044.045-.656.125-1.36.177-1.463.109-38.023 10.026-39.568 10.734-1.068.488-2.544 1.969-3.035 3.044-.496 1.087-10.126 37.833-10.231 39.045-.261 2.985-.148 3.138 8.986 12.202 19.767 19.615 20.592 20.413 21.569 20.879 2.878 1.371 2.553 1.432 24.999-4.705 19.816-5.418 19.904-5.446 21.229-6.771 1.365-1.365 1.414-1.523 6.632-21.376 5.785-22.007 5.608-20.909 3.805-23.6-.669-.998-28.007-28.003-28.939-28.586-1.091-.682-3.77-1.366-4.087-1.043"></path>
    </g>
</svg>